<svg width="24" height="24" viewBox="0 0 24 24" fill="none" xmlns="http://www.w3.org/2000/svg">
<path d="M7.02423 2.31006C7.77519 2.56445 8.4896 2.91611 9.14923 3.35606C10.0808 3.11797 11.0387 2.99836 12.0002 3.00006C12.9932 3.00006 13.9512 3.12406 14.8492 3.35506C15.5086 2.91554 16.2227 2.56422 16.9732 2.31006C17.6702 2.07306 18.6632 1.68906 19.2532 2.34206C19.6532 2.78606 19.7532 3.53006 19.8242 4.09806C19.9042 4.73206 19.9232 5.55806 19.7132 6.37806C20.5162 7.41506 21.0002 8.65206 21.0002 10.0001C21.0002 12.0421 19.8942 13.8151 18.2572 15.0431C17.4694 15.6266 16.5956 16.0841 15.6672 16.3991C15.8812 16.8891 16.0002 17.4311 16.0002 18.0001V21.0001C16.0002 21.2653 15.8949 21.5196 15.7073 21.7072C15.5198 21.8947 15.2654 22.0001 15.0002 22.0001H9.00023C8.73501 22.0001 8.48066 21.8947 8.29312 21.7072C8.10559 21.5196 8.00023 21.2653 8.00023 21.0001V20.0091C7.04523 20.1261 6.24423 20.0221 5.56323 19.7331C4.85123 19.4311 4.35523 18.9631 3.98223 18.5151C3.62823 18.0911 3.24223 17.1351 2.68423 16.9491C2.5596 16.9076 2.44437 16.8419 2.34512 16.7559C2.24586 16.6699 2.16452 16.5651 2.10574 16.4477C1.98703 16.2104 1.96742 15.9358 2.05123 15.6841C2.13504 15.4324 2.3154 15.2243 2.55263 15.1056C2.78986 14.9869 3.06454 14.9673 3.31623 15.0511C3.98223 15.2731 4.41623 15.7531 4.71323 16.1391C5.19323 16.7591 5.58323 17.5691 6.34323 17.8921C6.65623 18.0251 7.11523 18.1121 7.83323 18.0141L8.00023 17.9801C8.00214 17.4359 8.11547 16.8978 8.33323 16.3991C7.40482 16.0841 6.53104 15.6266 5.74323 15.0431C4.10623 13.8151 3.00023 12.0431 3.00023 10.0001C3.00023 8.65406 3.48323 7.41806 4.28423 6.38206C4.07423 5.56206 4.09223 4.73406 4.17223 4.09906L4.17723 4.06106C4.25023 3.47906 4.33523 2.79406 4.74323 2.34206C5.33323 1.68906 6.32723 2.07406 7.02323 2.31106L7.02423 2.31006Z" fill="#070F2B"/>
</svg>
