<svg width="44" height="44" viewBox="0 0 44 44" fill="none" xmlns="http://www.w3.org/2000/svg">
<path d="M43.1683 20.0394L23.9568 0.830603C23.6938 0.567433 23.3815 0.358668 23.0377 0.216234C22.694 0.0737995 22.3255 0.000488281 21.9534 0.000488281C21.5814 0.000488281 21.2129 0.0737995 20.8692 0.216234C20.5254 0.358668 20.2131 0.567433 19.9501 0.830603L15.9626 4.8181L21.0226 9.8781C21.6193 9.67435 22.2614 9.64248 22.8754 9.78611C23.4894 9.92975 24.0506 10.2431 24.4951 10.6904C24.9395 11.1378 25.2493 11.701 25.389 12.3159C25.5287 12.9309 25.4927 13.5727 25.2851 14.1681L30.1608 19.0466C30.8822 18.7926 31.6685 18.7918 32.3904 19.0444C33.1122 19.297 33.7266 19.7879 34.1322 20.4362C34.5378 21.0845 34.7106 21.8516 34.6221 22.6113C34.5335 23.3709 34.1889 24.0777 33.6451 24.6154C33.0945 25.1693 32.3686 25.5149 31.5915 25.5932C30.8144 25.6714 30.0342 25.4774 29.3842 25.0443C28.7343 24.6112 28.2548 23.9659 28.0278 23.2186C27.8008 22.4713 27.8403 21.6683 28.1396 20.9469L23.5938 16.3984V28.3691C24.2848 28.7111 24.8376 29.2796 25.1603 29.9799C25.4829 30.6801 25.5558 31.4697 25.3668 32.2172C25.1778 32.9646 24.7383 33.6247 24.1216 34.0875C23.5049 34.5502 22.7483 34.7876 21.9778 34.76C21.2073 34.7325 20.4695 34.4418 19.8874 33.9362C19.3053 33.4307 18.9141 32.7409 18.7789 31.9819C18.6437 31.2229 18.7727 30.4404 19.1445 29.765C19.5162 29.0896 20.1082 28.562 20.8218 28.2701V16.1894C20.4101 16.0207 20.0359 15.7721 19.7207 15.4581C19.4055 15.1441 19.1555 14.7708 18.9853 14.3597C18.815 13.9487 18.7278 13.508 18.7287 13.063C18.7295 12.6181 18.8185 12.1778 18.9903 11.7674L14.0046 6.77885L0.832068 19.9514C0.568898 20.2144 0.360132 20.5267 0.217698 20.8705C0.0752643 21.2142 0.00195313 21.5826 0.00195312 21.9547C0.00195313 22.3268 0.0752643 22.6953 0.217698 23.039C0.360132 23.3827 0.568898 23.6951 0.832068 23.9581L20.0436 43.1696C20.3066 43.4328 20.6189 43.6415 20.9627 43.784C21.3064 43.9264 21.6749 43.9997 22.0469 43.9997C22.419 43.9997 22.7875 43.9264 23.1312 43.784C23.475 43.6415 23.7873 43.4328 24.0503 43.1696L43.1711 24.0489C43.4342 23.7858 43.643 23.4735 43.7854 23.1298C43.9279 22.786 44.0012 22.4176 44.0012 22.0455C44.0012 21.6734 43.9279 21.305 43.7854 20.9612C43.643 20.6175 43.4342 20.3051 43.1711 20.0421" fill="#1B1A55"/>
</svg>
