<svg width="44" height="44" viewBox="0 0 44 44" fill="none" xmlns="http://www.w3.org/2000/svg">
<path fill-rule="evenodd" clip-rule="evenodd" d="M15.5907 5.38875C14.4173 5.04848 13.552 5.13942 12.9213 5.48262C12.2877 5.82288 11.7363 6.50048 11.3784 7.66795C11.0205 8.84422 10.9003 10.4135 11.0733 12.3085C11.1027 12.6165 11.1379 12.9303 11.1819 13.2501C12.8 12.8439 14.442 12.5392 16.0981 12.3378C17.2295 10.7402 18.4797 9.23014 19.8381 7.82048C19.7739 7.76828 19.7094 7.71645 19.6445 7.66502C18.1544 6.48582 16.7699 5.72902 15.5907 5.38875ZM22 5.79942C21.824 5.65275 21.6451 5.50608 21.4661 5.36528C19.7883 4.03942 18.0693 3.05088 16.4091 2.56982C14.7371 2.08582 13.0269 2.08582 11.5221 2.90422C10.0173 3.71968 9.07867 5.15408 8.57413 6.81728C8.0696 8.47168 7.95813 10.4487 8.15173 12.5813C8.19867 13.0799 8.26027 13.5903 8.3424 14.1154C7.84373 14.2914 7.36267 14.4821 6.90507 14.6786C4.9368 15.5205 3.25013 16.5618 2.03573 17.7938C0.815467 19.0287 0 20.5335 0 22.2466C0 23.9567 0.815467 25.4645 2.03573 26.7023C3.25013 27.9343 4.9368 28.9727 6.90507 29.8175C7.36267 30.0141 7.84373 30.2018 8.3424 30.3807C8.26332 30.8901 8.19973 31.4017 8.15173 31.9149C7.95813 34.0445 8.0696 36.0215 8.57413 37.6789C9.07867 39.3421 10.0173 40.7765 11.5221 41.589C13.0269 42.4045 14.74 42.4074 16.4091 41.9234C18.0693 41.4394 19.7883 40.4567 21.4661 39.1279L22 38.6909C22.176 38.8405 22.3549 38.9842 22.5339 39.1279C24.2117 40.4538 25.9307 41.4394 27.5909 41.9234C29.26 42.4074 30.9731 42.4045 32.4779 41.589C33.9827 40.7765 34.9213 39.3421 35.4259 37.6789C35.9304 36.0245 36.0419 34.0445 35.8483 31.9149C35.8004 31.4017 35.7368 30.8901 35.6576 30.3807C36.1426 30.2084 36.622 30.0206 37.0949 29.8175C39.0632 28.9727 40.7499 27.9314 41.9643 26.7023C43.1845 25.4645 44 23.9567 44 22.2437C44 20.5365 43.1845 19.0287 41.9643 17.7909C40.7499 16.5589 39.0632 15.5175 37.0949 14.6757C36.6216 14.4735 36.1423 14.2857 35.6576 14.1125C35.7368 13.5874 35.8013 13.077 35.8483 12.5783C36.0419 10.4458 35.9304 8.47168 35.4259 6.81435C34.9213 5.15115 33.9827 3.71675 32.4779 2.90128C30.976 2.08582 29.26 2.08582 27.5909 2.56982C25.9307 3.05088 24.2117 4.03648 22.5339 5.36528L22 5.79942ZM22 9.80342C21.34 10.4781 20.68 11.2202 20.0288 12.0181C21.3424 11.9661 22.6576 11.9661 23.9712 12.0181C23.3472 11.251 22.6895 10.5121 22 9.80342ZM27.9019 12.3378C26.6992 10.6541 25.4379 9.13462 24.1619 7.82048L24.3525 7.66502C25.8485 6.48582 27.2272 5.72902 28.4093 5.38875C29.5797 5.04848 30.448 5.13942 31.0787 5.48262C31.7123 5.82288 32.2637 6.50048 32.6187 7.66795C32.9765 8.84422 33.0997 10.4135 32.9267 12.3085C32.8973 12.6165 32.8621 12.9303 32.8181 13.2471C31.1999 12.842 29.558 12.5383 27.9019 12.3378ZM26.2504 15.1069C23.4229 14.8436 20.5771 14.8436 17.7496 15.1069C16.2391 17.3663 14.9325 19.7557 13.8453 22.2466C14.9327 24.736 16.2382 27.1243 17.7467 29.3834C20.5761 29.647 23.4239 29.647 26.2533 29.3834C27.7626 27.1248 29.0682 24.7364 30.1547 22.2466C29.0675 19.7562 27.7591 17.367 26.2504 15.1069ZM31.6037 18.445C31.1182 17.4942 30.6026 16.559 30.0579 15.6407C30.8205 15.7874 31.5568 15.9517 32.2637 16.1335C32.0789 16.8845 31.8589 17.6589 31.6037 18.445ZM31.6037 26.0453C31.1189 26.9975 30.6034 27.9337 30.0579 28.8525C30.8205 28.7058 31.5568 28.5415 32.2637 28.3567C32.0708 27.5788 31.8507 26.8078 31.6037 26.0453ZM35.0651 27.4738C34.6094 25.6943 34.0331 23.9479 33.3403 22.2466C34.0619 20.4573 34.6397 18.7002 35.0651 17.0194C35.3672 17.1309 35.6605 17.2511 35.9451 17.3714C37.6933 18.1223 39.0163 18.9759 39.8787 19.8501C40.7352 20.7183 41.0696 21.5279 41.0696 22.2466C41.0696 22.9653 40.7352 23.7719 39.8787 24.6402C39.0163 25.5173 37.6933 26.3709 35.9451 27.1218C35.6543 27.2455 35.3609 27.3628 35.0651 27.4738ZM32.8211 31.2431C31.2031 31.65 29.5611 31.9547 27.9048 32.1554C26.7021 33.8391 25.4408 35.3557 24.1648 36.6727L24.3584 36.8253C25.8485 38.0074 27.2331 38.7613 28.4123 39.1045C29.5827 39.4447 30.4509 39.3538 31.0816 39.0106C31.7152 38.6674 32.2667 37.9898 32.6216 36.8223C32.9824 35.649 33.1027 34.0767 32.9296 32.1818C32.9002 31.8682 32.864 31.5552 32.8211 31.2431ZM22 34.6898C22.66 34.0151 23.32 33.273 23.9712 32.4751C22.6576 32.5273 21.3424 32.5273 20.0288 32.4751C20.68 33.273 21.34 34.0122 22 34.6898ZM13.9451 28.8525C13.3998 27.9336 12.8842 26.9974 12.3992 26.0453C12.144 26.8373 11.924 27.6058 11.7392 28.3567C12.4432 28.5415 13.1824 28.7058 13.9451 28.8525ZM11.1819 31.2431C12.7999 31.65 14.4419 31.9547 16.0981 32.1554C17.3008 33.8391 18.5592 35.3557 19.8381 36.6727C19.7739 36.724 19.7094 36.7748 19.6445 36.8253C18.1544 38.0074 16.7699 38.7613 15.5907 39.1045C14.4173 39.4447 13.552 39.3538 12.9184 39.0106C12.2848 38.6674 11.7363 37.9898 11.3784 36.8223C11.0205 35.649 10.9003 34.0767 11.0733 32.1818C11.1028 31.8682 11.1389 31.5552 11.1819 31.2431ZM8.93787 27.4738C9.3632 25.7901 9.93813 24.0359 10.6627 22.2466C9.96985 20.5453 9.39358 18.7989 8.93787 17.0194C8.64233 17.1312 8.34895 17.2485 8.05787 17.3714C6.3096 18.1223 4.98667 18.9759 4.12427 19.8501C3.26773 20.7183 2.93333 21.5279 2.93333 22.2466C2.93333 22.9653 3.26773 23.7719 4.12427 24.6402C4.98667 25.5173 6.3096 26.3709 8.05787 27.1218C8.3424 27.2421 8.63573 27.3594 8.93787 27.4738ZM11.7392 16.1365C11.924 16.8845 12.144 17.6589 12.3992 18.445C12.8845 17.4941 13.4001 16.5588 13.9451 15.6407C13.1824 15.7874 12.4461 15.9517 11.7392 16.1365ZM17.6 22.2466C17.6 21.0797 18.0636 19.9605 18.8887 19.1353C19.7139 18.3102 20.833 17.8466 22 17.8466C23.167 17.8466 24.2861 18.3102 25.1113 19.1353C25.9364 19.9605 26.4 21.0797 26.4 22.2466C26.4 23.4136 25.9364 24.5327 25.1113 25.3579C24.2861 26.183 23.167 26.6466 22 26.6466C20.833 26.6466 19.7139 26.183 18.8887 25.3579C18.0636 24.5327 17.6 23.4136 17.6 22.2466ZM22 20.7799C21.611 20.7799 21.238 20.9345 20.9629 21.2095C20.6879 21.4846 20.5333 21.8576 20.5333 22.2466C20.5333 22.6356 20.6879 23.0087 20.9629 23.2837C21.238 23.5588 21.611 23.7133 22 23.7133C22.389 23.7133 22.762 23.5588 23.0371 23.2837C23.3121 23.0087 23.4667 22.6356 23.4667 22.2466C23.4667 21.8576 23.3121 21.4846 23.0371 21.2095C22.762 20.9345 22.389 20.7799 22 20.7799Z" fill="#1B1A55"/>
</svg>
