<svg width="44" height="44" viewBox="0 0 44 44" fill="none" xmlns="http://www.w3.org/2000/svg">
<path d="M0 22V44H44V0H0V22ZM35.4557 20.2455C36.5106 20.4939 37.4692 21.0466 38.2126 21.835C38.6141 22.264 39.215 23.0519 39.2659 23.2458C39.2796 23.3035 37.3684 24.585 36.2079 25.3014C36.1652 25.3302 35.9934 25.1515 35.8064 24.871C35.2412 24.0474 34.6459 23.6899 33.737 23.6252C32.4046 23.5386 31.5453 24.2344 31.5521 25.4018C31.5451 25.6874 31.6089 25.9703 31.7378 26.2254C32.032 26.8345 32.5834 27.1989 34.287 27.9373C37.4385 29.2903 38.7846 30.1854 39.622 31.4531C40.5598 32.8708 40.7674 35.134 40.1376 36.8239C39.4364 38.6499 37.7025 39.8956 35.2674 40.304C34.5153 40.4401 32.725 40.4181 31.9151 40.2682C30.1469 39.9534 28.4707 39.0789 27.4395 37.9335C27.0311 37.4894 26.2432 36.322 26.2941 36.2436C26.3161 36.2148 26.4949 36.1006 26.6956 35.9851L28.3291 35.0391L29.5969 34.3021L29.8623 34.6954C30.2349 35.2605 31.0434 36.0346 31.5315 36.2917C32.9354 37.037 34.8617 36.9298 35.8146 36.0773C36.201 35.7555 36.4169 35.2605 36.388 34.76C36.388 34.2513 36.3234 34.023 36.058 33.6421C35.7143 33.1554 35.0199 32.7401 33.0357 31.8808C30.7656 30.899 29.7839 30.2981 28.897 29.3315C28.3387 28.6953 27.9258 27.945 27.687 27.1329C27.522 26.51 27.4794 24.948 27.6086 24.3251C28.0748 22.1265 29.7358 20.6016 32.12 20.1506C32.8941 20.0008 34.6981 20.0571 35.4571 20.2441L35.4557 20.2455ZM25.1295 22.0866L25.1432 23.8838H19.4136V40.1624H15.3601V23.8838H9.63875V22.1224C9.63875 21.1406 9.66075 20.3252 9.68825 20.3032C9.71025 20.2744 13.1904 20.2606 17.4158 20.2675L25.1075 20.2895L25.1295 22.0866Z" fill="#1B1A55"/>
</svg>
