<svg width="32" height="32" viewBox="0 0 32 32" fill="none" xmlns="http://www.w3.org/2000/svg">
<circle cx="16" cy="16" r="16" fill="#9290C3"/>
<g clip-path="url(#clip0_1204_2573)">
<path d="M11.0242 6.31006C11.7752 6.56445 12.4896 6.91611 13.1492 7.35606C14.0808 7.11797 15.0387 6.99836 16.0002 7.00006C16.9932 7.00006 17.9512 7.12406 18.8492 7.35506C19.5086 6.91554 20.2227 6.56422 20.9732 6.31006C21.6702 6.07306 22.6632 5.68906 23.2532 6.34206C23.6532 6.78606 23.7532 7.53006 23.8242 8.09806C23.9042 8.73206 23.9232 9.55806 23.7132 10.3781C24.5162 11.4151 25.0002 12.6521 25.0002 14.0001C25.0002 16.0421 23.8942 17.8151 22.2572 19.0431C21.4694 19.6266 20.5956 20.0841 19.6672 20.3991C19.8812 20.8891 20.0002 21.4311 20.0002 22.0001V25.0001C20.0002 25.2653 19.8949 25.5196 19.7073 25.7072C19.5198 25.8947 19.2654 26.0001 19.0002 26.0001H13.0002C12.735 26.0001 12.4807 25.8947 12.2931 25.7072C12.1056 25.5196 12.0002 25.2653 12.0002 25.0001V24.0091C11.0452 24.1261 10.2442 24.0221 9.56323 23.7331C8.85123 23.4311 8.35523 22.9631 7.98223 22.5151C7.62823 22.0911 7.24223 21.1351 6.68423 20.9491C6.5596 20.9076 6.44437 20.8419 6.34512 20.7559C6.24586 20.6699 6.16452 20.5651 6.10574 20.4477C5.98703 20.2104 5.96742 19.9358 6.05123 19.6841C6.13504 19.4324 6.3154 19.2243 6.55263 19.1056C6.78986 18.9869 7.06454 18.9673 7.31623 19.0511C7.98223 19.2731 8.41623 19.7531 8.71323 20.1391C9.19323 20.7591 9.58323 21.5691 10.3432 21.8921C10.6562 22.0251 11.1152 22.1121 11.8332 22.0141L12.0002 21.9801C12.0021 21.4359 12.1155 20.8978 12.3332 20.3991C11.4048 20.0841 10.531 19.6266 9.74323 19.0431C8.10623 17.8151 7.00023 16.0431 7.00023 14.0001C7.00023 12.6541 7.48323 11.4181 8.28423 10.3821C8.07423 9.56206 8.09223 8.73406 8.17223 8.09906L8.17723 8.06106C8.25023 7.47906 8.33523 6.79406 8.74323 6.34206C9.33323 5.68906 10.3272 6.07406 11.0232 6.31106L11.0242 6.31006Z" fill="#070F2B"/>
</g>
<defs>
<clipPath id="clip0_1204_2573">
<rect width="24" height="24" fill="white" transform="translate(4 4)"/>
</clipPath>
</defs>
</svg>
