<svg width="32" height="32" viewBox="0 0 32 32" fill="none" xmlns="http://www.w3.org/2000/svg">
<circle cx="16" cy="16" r="16" fill="#9290C3"/>
<path d="M11.362 9.58327C11.3617 10.0695 11.1683 10.5357 10.8244 10.8794C10.4804 11.223 10.014 11.4159 9.52773 11.4157C9.0415 11.4154 8.57528 11.2221 8.23164 10.8781C7.88799 10.5341 7.69507 10.0677 7.69531 9.58144C7.69556 9.09521 7.88894 8.62899 8.23293 8.28535C8.57692 7.9417 9.04333 7.74878 9.52956 7.74902C10.0158 7.74927 10.482 7.94265 10.8257 8.28664C11.1693 8.63063 11.3622 9.09704 11.362 9.58327ZM11.417 12.7733H7.75031V24.2499H11.417V12.7733ZM17.2103 12.7733H13.562V24.2499H17.1736V18.2274C17.1736 14.8724 21.5461 14.5608 21.5461 18.2274V24.2499H25.167V16.9808C25.167 11.3249 18.6953 11.5358 17.1736 14.3133L17.2103 12.7733Z" fill="#070F2B"/>
</svg>
