<svg width="44" height="44" viewBox="0 0 44 44" fill="none" xmlns="http://www.w3.org/2000/svg">
<g clip-path="url(#clip0_1195_2503)">
<path d="M22.0005 21.9999C22.0005 12.225 36.6677 12.225 36.6677 21.9999C36.6677 31.7748 22.0005 31.7748 22.0005 21.9999ZM7.33341 36.667C7.33286 35.7039 7.52216 34.7501 7.89048 33.8602C8.2588 32.9703 8.79892 32.1617 9.47995 31.4807C10.161 30.7997 10.9696 30.2596 11.8595 29.8912C12.7494 29.5229 13.7032 29.3336 14.6663 29.3342H21.9992V36.667C21.9992 46.4419 7.33203 46.4419 7.33203 36.667H7.33341ZM22.0005 -8.8682e-05V14.667H29.3334C39.1083 14.667 39.1083 -8.8682e-05 29.3334 -8.8682e-05H22.0005ZM7.33341 7.33279C7.33286 8.29591 7.52216 9.24969 7.89048 10.1396C8.2588 11.0295 8.79892 11.8381 9.47995 12.5191C10.161 13.2001 10.9696 13.7403 11.8595 14.1086C12.7494 14.4769 13.7032 14.6662 14.6663 14.6657H21.9992V-0.00146368H14.6663C13.7032 -0.00200593 12.7494 0.187294 11.8595 0.555614C10.9696 0.923933 10.161 1.46405 9.47995 2.14508C8.79892 2.8261 8.2588 3.63469 7.89048 4.5246C7.52216 5.41451 7.33286 6.36829 7.33341 7.33141V7.33279ZM7.33341 21.9999C7.33286 22.963 7.52216 23.9168 7.89048 24.8067C8.2588 25.6966 8.79892 26.5052 9.47995 27.1862C10.161 27.8673 10.9696 28.4074 11.8595 28.7757C12.7494 29.144 13.7032 29.3347 14.6663 29.3342H21.9992V14.6657H14.6663C13.7032 14.6651 12.7494 14.8544 11.8595 15.2227C10.9696 15.5911 10.161 16.1312 9.47995 16.8122C8.79892 17.4932 8.2588 18.3018 7.89048 19.1917C7.52216 20.0816 7.33286 21.0354 7.33341 21.9985V21.9999Z" fill="#1B1A55"/>
</g>
<defs>
<clipPath id="clip0_1195_2503">
<rect width="44" height="44" fill="white"/>
</clipPath>
</defs>
</svg>
