<svg width="44" height="44" viewBox="0 0 44 44" fill="none" xmlns="http://www.w3.org/2000/svg">
<mask id="mask0_1195_2489" style="mask-type:luminance" maskUnits="userSpaceOnUse" x="0" y="0" width="44" height="44">
<path d="M0 0H44V44H0V0Z" fill="white"/>
</mask>
<g mask="url(#mask0_1195_2489)">
<path fill-rule="evenodd" clip-rule="evenodd" d="M0 0H44V44H0V0ZM33.6362 36.8867C31.5957 36.8867 30.4425 35.8233 29.557 34.375L26.1965 36.3275C27.4102 38.7255 29.8907 40.5552 33.7315 40.5552C37.6585 40.5552 40.5827 38.5165 40.5827 34.793C40.5827 31.3408 38.599 29.8063 35.0863 28.2975L34.0523 27.8557C32.2777 27.0857 31.5095 26.5852 31.5095 25.344C31.5095 24.3412 32.2795 23.573 33.4895 23.573C34.6757 23.573 35.4402 24.0735 36.1497 25.344L39.369 23.2778C38.0068 20.8817 36.1185 19.9668 33.4895 19.9668C29.7972 19.9668 27.434 22.3282 27.434 25.4302C27.434 28.7943 29.414 30.3875 32.3987 31.658L33.4327 32.1017C35.3192 32.9267 36.443 33.429 36.443 34.8462C36.443 36.0305 35.3485 36.8867 33.6362 36.8867ZM17.6128 36.8592C16.192 36.8592 15.5998 35.8875 14.9508 34.7325L11.5848 36.7712C12.5602 38.8355 14.4778 40.5478 17.787 40.5478C21.4518 40.5478 23.9617 38.599 23.9617 34.3182V20.2015H19.8275V34.2632C19.8275 36.3293 18.9695 36.8592 17.611 36.8592" fill="#1B1A55"/>
</g>
</svg>
