<svg width="46" height="40" viewBox="0 0 46 40" fill="none" xmlns="http://www.w3.org/2000/svg">
<path d="M8.33259 0.0668946H1.53379C1.26399 0.0668146 0.998951 0.137923 0.765427 0.273039C0.531903 0.408155 0.338163 0.602495 0.203772 0.836437C0.0693795 1.07038 -0.000907035 1.33564 8.83749e-06 1.60543C0.00092471 1.87523 0.0730106 2.14 0.208988 2.37303L21.6757 39.173C21.8106 39.4047 22.004 39.5969 22.2365 39.7305C22.4689 39.864 22.7323 39.9343 23.0005 39.9343C23.2686 39.9343 23.532 39.864 23.7644 39.7305C23.9969 39.5969 24.1903 39.4047 24.3253 39.173L45.7919 2.37303C45.9279 2.14 46 1.87523 46.0009 1.60543C46.0018 1.33564 45.9315 1.07038 45.7971 0.836437C45.6627 0.602495 45.469 0.408155 45.2355 0.273039C45.002 0.137923 44.7369 0.0668146 44.4671 0.0668946H37.6683L23.0005 24.5144L8.33259 0.0668946Z" fill="#1B1A55"/>
</svg>
