<svg width="22" height="22" viewBox="0 0 22 22" fill="none" xmlns="http://www.w3.org/2000/svg">
<path d="M6.36198 4.58327C6.36174 5.0695 6.16835 5.53572 5.82436 5.87937C5.48037 6.22301 5.01396 6.41593 4.52773 6.41569C4.0415 6.41545 3.57528 6.22206 3.23164 5.87807C2.88799 5.53408 2.69507 5.06767 2.69531 4.58144C2.69556 4.09521 2.88894 3.62899 3.23293 3.28535C3.57692 2.9417 4.04333 2.74878 4.52956 2.74902C5.01579 2.74927 5.48201 2.94265 5.82566 3.28664C6.1693 3.63063 6.36222 4.09704 6.36198 4.58327ZM6.41698 7.77327H2.75031V19.2499H6.41698V7.77327ZM12.2103 7.77327H8.56198V19.2499H12.1736V13.2274C12.1736 9.87244 16.5461 9.56077 16.5461 13.2274V19.2499H20.167V11.9808C20.167 6.32494 13.6953 6.53577 12.1736 9.31327L12.2103 7.77327Z" fill="#070F2B"/>
</svg>
